<?xml version="1.0" encoding="UTF-8"?><svg id="_레이어_2" xmlns="http://www.w3.org/2000/svg" viewBox="0 0 18 18"><defs><style>.cls-1{fill:none;}.cls-2,.cls-3{fill:#fff;}.cls-3{opacity:0;}</style></defs><g id="Layer_1"><g><rect class="cls-1" width="18" height="18"/><g><path class="cls-2" d="M2.65,13.62c0,.95,.78,1.73,1.73,1.73H13.62c.95,0,1.73-.78,1.73-1.73V7.53H2.65v6.09Zm4.94-3.3c0-.21,.11-.4,.29-.5s.4-.1,.58,0l1.94,1.12c.18,.1,.29,.29,.29,.5s-.11,.4-.29,.5l-1.94,1.12c-.09,.05-.19,.08-.29,.08s-.2-.03-.29-.08c-.18-.1-.29-.29-.29-.5v-2.24Z"/><path class="cls-3" d="M2.65,13.62c0,.95,.78,1.73,1.73,1.73H13.62c.95,0,1.73-.78,1.73-1.73V7.53H2.65v6.09Zm4.94-3.3c0-.21,.11-.4,.29-.5s.4-.1,.58,0l1.94,1.12c.18,.1,.29,.29,.29,.5s-.11,.4-.29,.5l-1.94,1.12c-.09,.05-.19,.08-.29,.08s-.2-.03-.29-.08c-.18-.1-.29-.29-.29-.5v-2.24Z"/><polygon class="cls-2" points="9.25 6.37 11.86 2.65 9.45 2.65 6.84 6.37 9.25 6.37"/><polygon class="cls-3" points="9.25 6.37 11.86 2.65 9.45 2.65 6.84 6.37 9.25 6.37"/><path class="cls-2" d="M8.04,2.65h-3.65c-.95,0-1.73,.78-1.73,1.73v1.99h2.78l2.61-3.72Z"/><path class="cls-3" d="M8.04,2.65h-3.65c-.95,0-1.73,.78-1.73,1.73v1.99h2.78l2.61-3.72Z"/><path class="cls-2" d="M13.62,2.65h-.35l-2.61,3.72h4.69v-1.99c0-.95-.78-1.73-1.73-1.73Z"/><path class="cls-3" d="M13.62,2.65h-.35l-2.61,3.72h4.69v-1.99c0-.95-.78-1.73-1.73-1.73Z"/></g></g></g></svg>