<?xml version="1.0" encoding="UTF-8"?><svg id="_레이어_2" xmlns="http://www.w3.org/2000/svg" viewBox="0 0 92 119.56"><defs><style>.cls-1{fill:#0855ff;}</style></defs><g id="Layer_2"><path class="cls-1" d="m29.15,102.53v4.04H.79v-4.04h28.35Zm-1.4-1.14H2.28v-3.86h4.3v-2.63H2.55v-3.86h24.84v3.86h-4.04v2.63h4.3v3.86h.09Zm-19.84,14.31h19.93v3.42H2.46v-7.2h19.66v-.97H2.37v-3.42h25.11v7.2H7.9v.97Zm4.13-18.08h5.88v-2.63h-5.88v2.63Z"/><path class="cls-1" d="m44.33,112.81c1.32,0,2.63-.09,3.95-.35,1.32-.26,2.46-.53,3.25-.88v4.92c-.79.44-1.93.7-3.34.97s-2.81.35-4.3.35h-10.45v-15.54h9.66v-5.53h-9.66v-5h15.19v15.45h-9.66v5.62h5.35Zm15.27-21.68v28h-5.53v-12.55h-4.04v-5.35h4.04v-10.1s5.53,0,5.53,0Z"/><path class="cls-1" d="m81.11,106.75c-1.23.18-2.55.26-3.86.26h-12.38v-15.54h17.56v4.21h-12.11v1.58h11.5v3.86h-11.5v1.58h7.2c1.23,0,2.46-.09,3.6-.26,1.14-.18,2.11-.35,2.9-.7v4.13c-.7.44-1.67.7-2.9.88Zm6.76,2.72c2.28.88,3.42,2.37,3.42,4.39s-1.14,3.42-3.42,4.39c-2.28.88-5.44,1.32-9.31,1.32s-7.02-.44-9.31-1.32-3.42-2.37-3.42-4.39,1.14-3.42,3.42-4.39c2.28-.88,5.44-1.32,9.31-1.32s6.94.44,9.31,1.32Zm-4.3,5.44c1.23-.18,1.84-.61,1.84-1.14,0-.97-2.28-1.4-6.85-1.4s-6.85.44-6.85,1.4c0,.53.61.88,1.84,1.14s2.9.35,5,.35c2.11,0,3.77-.09,5-.35Zm7.46-7.11h-5.53v-16.68h5.53v16.68Z"/><g id="Layer_1"><path class="cls-1" d="m83.92,47.23c5.27-5.27,8.08-12.2,8.08-19.58s-2.9-14.31-8.08-19.58c-10.36-10.36-27.04-10.71-37.92-1.14C40.91,2.46,34.5,0,27.65,0c-7.37,0-14.31,2.9-19.58,8.08C2.9,13.34,0,20.28,0,27.65s2.9,14.31,8.08,19.58l37.92,37.92,20.81-20.81-10.01-10.01c2.46.7,4.92,1.05,7.55,1.05,7.37-.09,14.31-2.9,19.58-8.16h0Z"/></g></g></svg>